HIERARCHY
ROOT Hips
{
    OFFSET 0.000000 0.000000 0.000000
    CHANNELS 6 Xposition Yposition Zposition Zrotation Xrotation Yrotation
    JOINT Spine
    {
        OFFSET -0.000000 14.517291 0.000000
        CHANNELS 3 Zrotation Xrotation Yrotation
        JOINT Spine1
        {
            OFFSET -0.000000 37.558300 0.000000
            CHANNELS 3 Zrotation Xrotation Yrotation
            JOINT Neck
            {
                OFFSET -0.000000 37.404057 3.400369
                CHANNELS 3 Zrotation Xrotation Yrotation
                JOINT Head
                {
                    OFFSET -0.000000 24.785618 -3.540803
                    CHANNELS 3 Zrotation Xrotation Yrotation
                    End Site
                    {
                        OFFSET -0.000000 35.408028 0.000000
                    }
                }
            }
            JOINT LeftShoulder
            {
                OFFSET 6.992933 33.973492 -0.192664
                CHANNELS 3 Zrotation Xrotation Yrotation
                JOINT LeftArm
                {
                    OFFSET 21.527611 0.000000 0.000000
                    CHANNELS 3 Zrotation Xrotation Yrotation
                    JOINT LeftForeArm
                    {
                        OFFSET 56.353916 0.000000 0.000000
                        CHANNELS 3 Zrotation Xrotation Yrotation
                        JOINT LeftHand
                        {
                            OFFSET 47.774071 0.000000 0.000000
                            CHANNELS 3 Zrotation Xrotation Yrotation
                            End Site
                            {
                                OFFSET 26.556021 0.000000 0.000000
                            }
                        }
                    }
                }
            }
            JOINT RightShoulder
            {
                OFFSET -7.065357 33.973492 -0.192664
                CHANNELS 3 Zrotation Xrotation Yrotation
                JOINT RightArm
                {
                    OFFSET -21.527611 0.000000 0.000000
                    CHANNELS 3 Zrotation Xrotation Yrotation
                    JOINT RightForeArm
                    {
                        OFFSET -56.353916 0.000000 0.000000
                        CHANNELS 3 Zrotation Xrotation Yrotation
                        JOINT RightHand
                        {
                            OFFSET -47.774071 0.000000 0.000000
                            CHANNELS 3 Zrotation Xrotation Yrotation
                            End Site
                            {
                                OFFSET -26.556021 0.000000 0.000000
                            }
                        }
                    }
                }
            }
        }
    }
    JOINT LeftUpLeg
    {
        OFFSET 17.704014 0.000000 0.000000
        CHANNELS 3 Zrotation Xrotation Yrotation
        JOINT LeftLeg
        {
            OFFSET -0.000000 -81.181816 0.000000
            CHANNELS 3 Zrotation Xrotation Yrotation
            JOINT LeftFoot
            {
                OFFSET -0.000000 -62.821102 0.000000
                CHANNELS 3 Zrotation Xrotation Yrotation
                JOINT LeftToeBase
                {
                    OFFSET -0.000000 -11.507608 26.556021
                    CHANNELS 3 Zrotation Xrotation Yrotation
                    End Site
                    {
                        OFFSET -0.000000 0.000000 7.081605
                    }
                }
            }
        }
    }
    JOINT RightUpLeg
    {
        OFFSET -17.704014 0.000000 0.000000
        CHANNELS 3 Zrotation Xrotation Yrotation
        JOINT RightLeg
        {
            OFFSET -0.000000 -81.181816 0.000000
            CHANNELS 3 Zrotation Xrotation Yrotation
            JOINT RightFoot
            {
                OFFSET -0.000000 -62.821102 0.000000
                CHANNELS 3 Zrotation Xrotation Yrotation
                JOINT RightToeBase
                {
                    OFFSET -0.000000 -11.507608 26.556021
                    CHANNELS 3 Zrotation Xrotation Yrotation
                    End Site
                    {
                        OFFSET -0.000000 0.000000 7.081605
                    }
                }
            }
        }
    }
}
MOTION
Frames:    13
Frame Time:    0.008333
-14.299023    157.117371    -90.614731    -1.934166    -6.985563    54.917389    3.471960    -2.036884    5.419963    -11.002459    3.420372    2.113108    -5.406950    1.814649    -26.784807    21.892908    7.126621    -25.674614    1.996814    7.158941    -20.291002    -30.553816    24.621643    -47.388351    -11.298901    -5.920255    -114.751167    3.464394    -23.190390    -2.258227    -17.721973    -4.685499    3.221823    34.287312    -11.603794    90.606888    16.205013    1.398989    42.801079    8.234695    -3.105551    25.860741    25.477713    -3.828082    -7.197950    -10.329140    26.632101    -21.707075    -4.861422    -23.349354    40.643406    0.000000    0.000000    0.000000    -11.987252    -13.862511    -25.078466    6.100762    21.694508    -20.234138    6.662414    5.939963    -11.975005    0.000000    0.000000    0.000000    
-14.345047    157.104370    -90.628548    -1.938215    -6.982240    54.980595    3.457421    -2.020235    5.410953    -10.981430    3.421303    2.109830    -5.408673    1.841382    -26.788933    21.913088    7.063095    -25.666302    1.995856    7.152945    -20.293638    -30.583765    24.600620    -47.374619    -11.310286    -5.909382    -114.735687    3.489879    -23.191399    -2.220283    -17.731808    -4.723726    3.202329    34.303658    -11.621591    90.586952    16.145485    1.364089    42.791103    8.188292    -3.125393    25.863403    25.493048    -3.916338    -7.262948    -10.370790    26.693956    -21.689730    -4.858741    -23.351871    40.638042    0.000000    0.000000    0.000000    -11.999938    -13.882360    -25.107759    6.099762    21.728714    -20.246124    6.666214    5.924105    -11.978941    0.000000    0.000000    0.000000    
-14.388191    157.093628    -90.643036    -1.938664    -6.976708    55.032867    3.434733    -2.002999    5.415246    -10.956497    3.418542    2.110567    -5.398877    1.881154    -26.809439    21.921656    6.987454    -25.675987    2.006582    7.162718    -20.312338    -30.607130    24.581297    -47.376385    -11.401320    -5.805534    -114.707535    3.913436    -23.226288    -2.126832    -17.741486    -4.753546    3.160600    34.309204    -11.642322    90.569435    16.078030    1.288312    42.780827    8.233618    -3.163528    25.842413    25.503653    -3.983757    -7.311958    -10.409960    26.729353    -21.655617    -4.855862    -23.348652    40.624737    0.000000    0.000000    0.000000    -12.015055    -13.904406    -25.107569    6.109227    21.763401    -20.259558    6.670999    5.897687    -12.021509    0.000000    0.000000    0.000000    
-14.427384    157.081024    -90.661331    -1.936491    -6.971567    55.087387    3.419114    -1.938120    5.360534    -10.929401    3.340902    2.084873    -5.453340    1.853525    -26.805338    21.929102    7.034353    -25.671545    1.960665    7.171026    -20.226423    -30.615047    24.611872    -47.356777    -11.411713    -5.791941    -114.717522    3.919432    -23.232798    -2.134347    -17.780128    -4.766358    3.181356    34.377579    -11.696239    90.586823    16.061815    1.233502    42.752438    8.204352    -3.213090    25.851906    25.506306    -4.053249    -7.354081    -10.435825    26.776627    -21.652328    -4.846471    -23.340668    40.625206    0.000000    0.000000    0.000000    -12.036979    -13.929670    -25.121294    6.117895    21.810144    -20.291647    6.668902    5.882936    -12.040696    0.000000    0.000000    0.000000    
-14.469318    157.064819    -90.678925    -1.937161    -6.960344    55.129158    3.398587    -1.927743    5.350863    -10.912365    3.340786    2.081347    -5.442867    1.908284    -26.810799    21.943075    6.930746    -25.660265    1.958362    7.168744    -20.227289    -30.630589    24.614315    -47.339081    -11.429423    -5.804754    -114.720688    3.974260    -23.272623    -2.131129    -17.790039    -4.804740    3.163834    34.400715    -11.765035    90.559723    15.991480    1.204894    42.720440    8.148769    -3.218916    25.881393    25.509348    -4.115775    -7.383156    -10.459910    26.811996    -21.642162    -4.874897    -23.372244    40.611507    0.000000    0.000000    0.000000    -12.062838    -13.962467    -25.091475    6.156785    21.847799    -20.318430    6.644209    5.854952    -12.108983    0.000000    0.000000    0.000000    
-14.501652    157.048294    -90.696167    -1.927787    -6.947476    55.173233    3.368758    -1.920977    5.338376    -10.893414    3.348581    2.077594    -5.444339    1.975139    -26.837349    21.981377    6.833592    -25.669901    1.967664    7.165507    -20.230179    -30.657217    24.621992    -47.318432    -11.426422    -5.834244    -114.712471    3.942932    -23.292774    -2.149196    -17.798933    -4.849563    3.148880    34.407406    -11.835812    90.507591    15.911458    1.153925    42.693897    8.143510    -3.232565    25.910997    25.499428    -4.168335    -7.391394    -10.466578    26.850033    -21.637238    -4.876538    -23.372911    40.581924    0.000000    0.000000    0.000000    -12.099106    -13.980248    -25.088299    6.189561    21.886374    -20.365845    6.632864    5.823343    -12.132431    0.000000    0.000000    0.000000    
-14.532998    157.032700    -90.711258    -1.917323    -6.934572    55.203609    3.329272    -1.925756    5.335426    -10.859903    3.369498    2.077794    -5.423960    2.020226    -26.860580    21.970745    6.751881    -25.684338    1.974003    7.173541    -20.242476    -30.668659    24.633963    -47.305965    -11.306903    -6.007919    -114.704002    3.620182    -23.269676    -2.222964    -17.825396    -4.908951    3.116796    34.443172    -11.903963    90.455826    15.893358    1.096977    42.668571    8.082234    -3.290505    25.934607    25.489429    -4.213565    -7.379112    -10.465994    26.894371    -21.670052    -4.865645    -23.358133    40.566971    0.000000    0.000000    0.000000    -12.127486    -14.005482    -25.080950    6.196994    21.932739    -20.369205    6.634873    5.791954    -12.164939    0.000000    0.000000    0.000000    
-14.562500    157.012253    -90.731247    -1.909789    -6.917719    55.230835    3.491201    -1.834093    5.125269    -11.081000    3.193365    1.997277    -5.692123    2.123836    -26.786898    22.237005    6.854252    -25.576645    1.811465    7.197212    -19.922859    -30.516430    24.750237    -47.158928    -11.367809    -5.984101    -114.811356    3.913823    -23.376627    -2.182593    -17.931152    -4.894651    3.383112    34.708218    -11.983459    90.528885    15.846655    1.033438    42.537640    8.118104    -3.305648    25.939690    25.478912    -4.260919    -7.365704    -10.477026    26.933775    -21.665894    -4.855663    -23.357462    40.533112    0.000000    0.000000    0.000000    -12.162552    -14.030614    -25.089085    6.211365    21.975515    -20.357681    6.643680    5.745789    -12.195457    0.000000    0.000000    0.000000    
-14.579567    156.995041    -90.743164    -1.894500    -6.919398    55.263874    3.488110    -1.833995    5.093376    -11.087563    3.213367    1.988754    -5.686412    2.133287    -26.805994    22.231443    6.835511    -25.594883    1.818741    7.202382    -19.906511    -30.533640    24.761507    -47.130558    -11.308411    -6.101267    -114.837311    3.659046    -23.400461    -2.186023    -17.998188    -4.830877    3.442175    34.763588    -12.189642    90.457840    15.783399    0.939509    42.568539    8.111729    -3.379760    25.953094    25.477888    -4.284639    -7.367492    -10.486923    26.964848    -21.675568    -4.847098    -23.382088    40.525635    0.000000    0.000000    0.000000    -12.182785    -14.031182    -25.102566    6.214748    22.008366    -20.361856    6.638424    5.712480    -12.202497    0.000000    0.000000    0.000000    
-14.602240    156.980103    -90.755623    -1.893740    -6.911202    55.291824    3.267987    -1.945205    5.282550    -10.838830    3.404370    2.062980    -5.358331    2.164690    -26.923590    21.970181    6.541975    -25.726192    2.019698    7.211708    -20.262911    -30.720890    24.651703    -47.250496    -11.310102    -6.115157    -114.702446    3.707047    -23.371881    -2.135636    -17.898003    -4.915172    3.111279    34.441574    -12.255352    90.236206    15.681223    0.740439    42.709927    8.180194    -3.542404    25.980652    25.485416    -4.324031    -7.356337    -10.513336    26.993505    -21.666569    -4.830471    -23.377295    40.495029    0.000000    0.000000    0.000000    -12.204590    -14.045891    -25.115883    6.230939    22.033163    -20.338783    6.637198    5.686928    -12.256196    0.000000    0.000000    0.000000    
-14.622620    156.966003    -90.770363    -1.880519    -6.914770    55.306812    2.894631    -1.805033    5.640861    -10.444449    3.208217    2.155997    -4.875517    2.250651    -27.145182    21.557087    6.262084    -26.006256    2.274813    7.375949    -20.856941    -31.099251    24.436926    -47.361576    -11.513083    -5.681505    -114.455933    4.188068    -23.199005    -2.084734    -17.674089    -4.835608    2.487695    34.027508    -12.202753    90.016457    15.606432    0.531235    42.942966    8.387231    -3.708629    26.002836    25.494905    -4.332953    -7.300896    -10.516680    27.011559    -21.675377    -4.857000    -23.404688    40.441349    0.000000    0.000000    0.000000    -12.214320    -14.043846    -25.119295    6.235795    22.047033    -20.329136    6.641531    5.651573    -12.271337    0.000000    0.000000    0.000000    
-14.640903    156.961029    -90.782860    -1.884277    -6.917939    55.320366    3.252144    -1.953504    5.253036    -10.842284    3.426028    2.055286    -5.331064    2.238013    -26.968399    22.004290    6.439649    -25.758497    2.065367    7.224716    -20.269005    -30.752930    24.658716    -47.235458    -11.440150    -6.012847    -114.685226    4.107823    -23.467129    -2.004437    -17.940186    -4.985931    3.026075    34.337337    -12.396148    90.033958    15.439589    0.359004    42.769211    8.356757    -3.786081    26.097565    25.513845    -4.351526    -7.229567    -10.513702    27.030195    -21.692064    -4.853440    -23.382721    40.375801    0.000000    0.000000    0.000000    -12.210360    -14.046670    -25.133465    6.231787    22.041039    -20.302931    6.647316    5.640763    -12.300267    0.000000    0.000000    0.000000    
-14.656067    156.955048    -90.798042    -1.875830    -6.925460    55.334209    3.249490    -1.957644    5.226921    -10.855074    3.446393    2.048882    -5.308717    2.211267    -26.983761    21.993664    6.456581    -25.780582    2.093519    7.223108    -20.250576    -30.766314    24.669035    -47.244263    -11.457228    -6.002038    -114.674843    4.152497    -23.478779    -1.974825    -17.938351    -4.865097    3.043978    34.227718    -12.667372    89.941284    15.374171    0.013208    42.997883    8.681098    -4.087893    25.813759    25.526661    -4.354868    -7.173315    -10.515129    27.040569    -21.664686    -4.879422    -23.385094    40.293842    0.000000    0.000000    0.000000    -12.209751    -14.033545    -25.160271    6.219345    22.033354    -20.270332    6.666115    5.632938    -12.306082    0.000000    0.000000    0.000000    
